<?xml version="1.0" encoding="UTF-8"?>
<svg width="120px" height="120px" viewBox="0 0 120 120" version="1.1" xmlns="http://www.w3.org/2000/svg" xmlns:xlink="http://www.w3.org/1999/xlink">
    <!-- Generator: Sketch 42 (36781) - http://www.bohemiancoding.com/sketch -->
    <title>rest-icon</title>
    <desc>Created with Sketch.</desc>
    <defs></defs>
    <g id="Page-1" stroke="none" stroke-width="1" fill="none" fill-rule="evenodd">
        <g id="rest-icon">
            <circle id="Oval" fill="#0095C1" fill-rule="nonzero" cx="60" cy="60" r="60"></circle>
            <path d="M33.2495117,45.144043 L33.2495117,50.4702148 L35.9785156,50.4702148 C37.2089905,50.4702148 38.1340301,50.2482932 38.7536621,49.8044434 C39.3732941,49.3605935 39.6831055,48.6992231 39.6831055,47.8203125 C39.6831055,46.9326127 39.3798858,46.2646507 38.7734375,45.8164062 C38.1669892,45.3681618 37.2617248,45.144043 36.0576172,45.144043 L33.2495117,45.144043 Z M33.2495117,57.1411133 L34.1459961,57.1411133 C34.6557643,57.1411133 35.0161122,57.2114251 35.2270508,57.3520508 C35.4379893,57.4926765 35.543457,57.7255843 35.543457,58.0507812 C35.543457,58.4023455 35.4511728,58.6484368 35.2666016,58.7890625 C35.0820303,58.9296882 34.7348658,59 34.2250977,59 L29.7954102,59 C29.4965805,59 29.2680672,58.918702 29.1098633,58.7561035 C28.9516594,58.593505 28.8725586,58.3584 28.8725586,58.0507812 C28.8725586,57.7255843 28.9604483,57.4926765 29.1362305,57.3520508 C29.3120126,57.2114251 29.6020488,57.1411133 30.0063477,57.1411133 L31.2060547,57.1411133 L31.2060547,45.144043 L30.4414062,45.144043 C29.7822233,45.144043 29.355958,45.0825201 29.1625977,44.9594727 C28.9692373,44.8364252 28.8725586,44.6035173 28.8725586,44.2607422 C28.8725586,43.9619126 28.9494621,43.7377937 29.1032715,43.5883789 C29.2570808,43.4389641 29.4877914,43.3642578 29.7954102,43.3642578 L35.3588867,43.3642578 C36.70362,43.3642578 37.7077604,43.4279779 38.3713379,43.5554199 C39.0349154,43.682862 39.5952126,43.9003891 40.0522461,44.2080078 C40.6411162,44.6035176 41.1047346,45.1264616 41.4431152,45.7768555 C41.7814958,46.4272493 41.9506836,47.1259728 41.9506836,47.8730469 C41.9506836,48.8837941 41.6408722,49.7517054 41.0212402,50.4768066 C40.4016082,51.2019079 39.5380915,51.7050767 38.4306641,51.9863281 C38.6591808,52.1181647 38.8635245,52.2719718 39.0437012,52.4477539 C39.2238779,52.623536 39.3974601,52.8344714 39.5644531,53.0805664 L42.2143555,57.1411133 L42.6494141,57.1411133 C43.141604,57.1411133 43.4799795,57.2092278 43.6645508,57.345459 C43.849122,57.4816901 43.9414062,57.7167952 43.9414062,58.0507812 C43.9414062,58.3584 43.8645027,58.593505 43.7106934,58.7561035 C43.556884,58.918702 43.3305679,59 43.0317383,59 L41.5419922,59 C41.111326,59 40.6894552,58.6835969 40.2763672,58.0507812 C40.2236325,57.9980466 40.1840822,57.9541017 40.1577148,57.9189453 L37.6264648,54.0825195 C37.1079076,53.3002891 36.6794451,52.794923 36.3410645,52.5664062 C36.0026839,52.3378895 35.5566434,52.2236328 35.0029297,52.2236328 L33.2495117,52.2236328 L33.2495117,57.1411133 Z M57.6391602,59 L46.1298828,59 C45.813475,59 45.5739754,58.9208992 45.411377,58.7626953 C45.2487785,58.6044914 45.1674805,58.3671891 45.1674805,58.0507812 C45.1674805,57.699217 45.2619619,57.4597174 45.4509277,57.3322754 C45.6398935,57.2048333 46.0727505,57.1411133 46.7495117,57.1411133 L47.5932617,57.1411133 L47.5932617,45.2626953 L46.7495117,45.2626953 C46.0903287,45.2626953 45.6618662,45.1945808 45.4641113,45.0583496 C45.2663564,44.9221185 45.1674805,44.6738299 45.1674805,44.3134766 C45.1674805,43.9882796 45.2487785,43.7487801 45.411377,43.5949707 C45.5739754,43.4411613 45.822264,43.3642578 46.15625,43.3642578 L57.6391602,43.3642578 C57.9379898,43.3642578 58.1643059,43.4543448 58.3181152,43.6345215 C58.4719246,43.8146982 58.5488281,44.0761702 58.5488281,44.4189453 L58.5488281,47.5302734 C58.5488281,47.987307 58.4829108,48.3037101 58.3510742,48.4794922 C58.2192376,48.6552743 57.9819353,48.7431641 57.6391602,48.7431641 C57.2788068,48.7431641 57.0305183,48.6464853 56.8942871,48.453125 C56.758056,48.2597647 56.6899414,47.8247104 56.6899414,47.1479492 L56.6899414,45.2626953 L49.6762695,45.2626953 L49.6762695,49.7055664 L53.1303711,49.7055664 L53.1303711,49.0068359 C53.1303711,48.5322242 53.1940912,48.2026376 53.3215332,48.0180664 C53.4489752,47.8334952 53.6708969,47.7412109 53.9873047,47.7412109 C54.2949234,47.7412109 54.508056,47.8400869 54.626709,48.0378418 C54.7453619,48.2355967 54.8046875,48.6596647 54.8046875,49.3100586 L54.8046875,51.762207 C54.8046875,52.42139 54.7431647,52.8432608 54.6201172,53.027832 C54.4970697,53.2124033 54.2773453,53.3046875 53.9609375,53.3046875 C53.6445297,53.3046875 53.4270025,53.1992198 53.3083496,52.9882812 C53.1896967,52.7773427 53.1303711,52.3686554 53.1303711,51.762207 L53.1303711,51.3007812 L49.6762695,51.3007812 L49.6762695,57.1411133 L56.6899414,57.1411133 L56.6899414,55.0053711 C56.6899414,54.3286099 56.758056,53.8935557 56.8942871,53.7001953 C57.0305183,53.506835 57.2788068,53.4101562 57.6391602,53.4101562 C57.9731462,53.4101562 58.2082513,53.5002432 58.3444824,53.6804199 C58.4807136,53.8605966 58.5488281,54.2011694 58.5488281,54.7021484 L58.5488281,58.0244141 C58.5488281,58.3408219 58.4697274,58.5825187 58.3115234,58.7495117 C58.1533195,58.9165047 57.9292007,59 57.6391602,59 Z M64.7451172,58.5385742 C64.7011717,58.934084 64.6000984,59.2087395 64.4418945,59.3625488 C64.2836906,59.5163582 64.0332048,59.5932617 63.6904297,59.5932617 C63.3212872,59.5932617 63.0466318,59.4855968 62.8664551,59.2702637 C62.6862784,59.0549306 62.5830079,58.7055688 62.5566406,58.222168 L62.3852539,55.1635742 L62.3852539,54.9262695 C62.3852539,54.5043924 62.4665519,54.2055673 62.6291504,54.0297852 C62.7917489,53.854003 63.0620098,53.7661133 63.4399414,53.7661133 C63.9672878,53.7661133 64.3452137,54.1440392 64.5737305,54.8999023 C64.6791997,55.2778339 64.780273,55.5634756 64.8769531,55.7568359 C65.1845719,56.3720734 65.6701627,56.846678 66.3337402,57.1806641 C66.9973178,57.5146501 67.7905227,57.6816406 68.7133789,57.6816406 C69.8471736,57.6816406 70.7678187,57.4135769 71.4753418,56.8774414 C72.1828649,56.3413059 72.5366211,55.6557659 72.5366211,54.8208008 C72.5366211,54.1264614 72.319094,53.5683615 71.8840332,53.1464844 C71.4489724,52.7246073 70.813969,52.4521491 69.9790039,52.3291016 L68.027832,52.0654297 C66.208487,51.8105456 64.8813518,51.3315465 64.0463867,50.628418 C63.2114216,49.9252895 62.7939453,48.9365298 62.7939453,47.6621094 C62.7939453,46.3173761 63.349848,45.1879929 64.4616699,44.2739258 C65.5734919,43.3598587 66.9599526,42.902832 68.6210938,42.902832 C69.1044946,42.902832 69.6142551,42.9665521 70.1503906,43.0939941 C70.6865261,43.2214362 71.2929654,43.4213854 71.9697266,43.6938477 C71.9873048,43.4389636 72.0576166,43.2631841 72.1806641,43.1665039 C72.3037116,43.0698237 72.5146469,43.0214844 72.8134766,43.0214844 C73.2001972,43.0214844 73.468261,43.0786127 73.6176758,43.1928711 C73.7670906,43.3071295 73.8593748,43.5795877 73.8945312,44.0102539 L74.0791016,46.765625 L74.0791016,46.8974609 C74.0791016,47.2050797 73.9912118,47.4445792 73.8154297,47.6159668 C73.6396476,47.7873544 73.3935563,47.8730469 73.0771484,47.8730469 C72.6113258,47.8730469 72.2509778,47.5478548 71.9960938,46.8974609 C71.8730463,46.5283185 71.7500006,46.2514658 71.6269531,46.0668945 C71.3369126,45.6274392 70.9194363,45.2890637 70.3745117,45.0517578 C69.8295871,44.8144519 69.2099644,44.6958008 68.515625,44.6958008 C67.4521431,44.6958008 66.5886264,44.95947 65.9250488,45.4868164 C65.2614713,46.0141628 64.9296875,46.7040973 64.9296875,47.5566406 C64.9296875,48.2246127 65.177976,48.7519512 65.6745605,49.1386719 C66.1711451,49.5253926 66.9291941,49.7890618 67.9487305,49.9296875 L70.0581055,50.1933594 C71.58741,50.3955088 72.7387657,50.8635217 73.512207,51.5974121 C74.2856484,52.3313025 74.6723633,53.3222594 74.6723633,54.5703125 C74.6723633,56.0468824 74.1230524,57.2311967 73.0244141,58.123291 C71.9257758,59.0153853 70.458017,59.4614258 68.6210938,59.4614258 C67.9882781,59.4614258 67.3598664,59.3867195 66.7358398,59.2373047 C66.1118133,59.0878899 65.4482457,58.8549821 64.7451172,58.5385742 Z M79.8666992,48.6904297 C79.849121,49.3496127 79.7722175,49.7692862 79.6359863,49.9494629 C79.4997552,50.1296396 79.2338887,50.2197266 78.8383789,50.2197266 C78.5307602,50.2197266 78.3000496,50.1384285 78.1462402,49.9758301 C77.9924309,49.8132316 77.9155273,49.5737321 77.9155273,49.2573242 L77.9287109,49.0529785 C77.9375,48.9167474 77.9418945,48.778321 77.9418945,48.6376953 L78.0737305,44.2871094 C78.0913087,43.9619124 78.1791984,43.7268074 78.3374023,43.5817871 C78.4956063,43.4367669 78.7416975,43.3642578 79.0756836,43.3642578 L90.5322266,43.3642578 C90.8662126,43.3642578 91.1123039,43.4367669 91.2705078,43.5817871 C91.4287117,43.7268074 91.512207,43.9619124 91.5209961,44.2871094 L91.6660156,48.6376953 C91.6660156,48.7958992 91.6704101,48.9453118 91.6791992,49.0859375 C91.6879883,49.2265632 91.6923828,49.2924805 91.6923828,49.2836914 C91.6923828,49.6000992 91.6088876,49.8352043 91.4418945,49.9890137 C91.2749015,50.142823 91.0244157,50.2197266 90.6904297,50.2197266 C90.3388654,50.2197266 90.0971686,50.1296396 89.965332,49.9494629 C89.8334954,49.7692862 89.7587892,49.3496127 89.7412109,48.6904297 L89.609375,45.2626953 L85.8256836,45.2626953 L85.8256836,57.1411133 L88.3701172,57.1411133 C88.7392597,57.1411133 89.0073234,57.2136223 89.1743164,57.3586426 C89.3413094,57.5036628 89.4248047,57.7343734 89.4248047,58.0507812 C89.4248047,58.3584 89.3457039,58.593505 89.1875,58.7561035 C89.0292961,58.918702 88.8007827,59 88.5019531,59 L81.105957,59 C80.8071274,59 80.5786141,58.918702 80.4204102,58.7561035 C80.2622062,58.593505 80.1831055,58.3584 80.1831055,58.0507812 C80.1831055,57.7255843 80.268798,57.4926765 80.4401855,57.3520508 C80.6115731,57.2114251 80.9038065,57.1411133 81.3168945,57.1411133 L83.7822266,57.1411133 L83.7822266,45.2626953 L79.9985352,45.2626953 L79.8666992,48.6904297 Z" id="REST" fill="#FFFFFF"></path>
            <path d="M37.6147461,67.4291992 C37.6700849,67.2797844 37.7475581,67.1746422 37.847168,67.1137695 C37.9467778,67.0528968 38.0906566,67.0224609 38.2788086,67.0224609 C38.4835622,67.0224609 38.627441,67.0722651 38.7104492,67.171875 C38.7934574,67.2714849 38.8349609,67.4762354 38.8349609,67.7861328 C38.8349609,68.3284532 38.8404947,68.8334124 38.8515625,69.3010254 C38.8626303,69.7686384 38.8681641,69.9720055 38.8681641,69.9111328 C38.8681641,70.1712253 38.8238937,70.3469234 38.7353516,70.4382324 C38.6468095,70.5295415 38.4890962,70.5751953 38.262207,70.5751953 C37.8969708,70.5751953 37.6590175,70.3151068 37.5483398,69.7949219 C37.5096027,69.6399732 37.4791668,69.5209965 37.4570312,69.4379883 C37.3518875,69.0229471 37.1000996,68.684002 36.7016602,68.4211426 C36.3032207,68.1582832 35.8356147,68.0268555 35.2988281,68.0268555 C34.319331,68.0268555 33.5335316,68.3851689 32.9414062,69.1018066 C32.3492809,69.8184443 32.0532227,70.7799419 32.0532227,71.9863281 C32.0532227,73.1927144 32.3534312,74.1542119 32.9538574,74.8708496 C33.5542836,75.5874873 34.3470003,75.9458008 35.3320312,75.9458008 C35.6529964,75.9458008 35.9794905,75.9001469 36.3115234,75.8088379 C36.6435563,75.7175288 36.9700505,75.5805673 37.2910156,75.3979492 C37.4404304,75.3204749 37.645181,75.1890472 37.9052734,75.0036621 C38.1653659,74.8182771 38.3507481,74.7255859 38.4614258,74.7255859 C38.6329761,74.7255859 38.7782383,74.7823074 38.8972168,74.895752 C39.0161953,75.0091965 39.0756836,75.148925 39.0756836,75.3149414 C39.0756836,75.4809579 39.0106615,75.6400546 38.8806152,75.7922363 C38.750569,75.9444181 38.5084653,76.1311838 38.1542969,76.3525391 C37.6894508,76.6569026 37.2218448,76.8810214 36.7514648,77.0249023 C36.2810849,77.1687833 35.7858099,77.2407227 35.265625,77.2407227 C33.8987562,77.2407227 32.7698612,76.7578987 31.8789062,75.7922363 C30.9879513,74.8265739 30.5424805,73.5911534 30.5424805,72.0859375 C30.5424805,70.5973233 30.9934851,69.3605192 31.8955078,68.3754883 C32.7975306,67.3904573 33.9319593,66.8979492 35.2988281,66.8979492 C35.6640643,66.8979492 36.0362123,66.9422196 36.4152832,67.0307617 C36.7943541,67.1193038 37.1941711,67.252115 37.6147461,67.4291992 Z M44.637207,67.3295898 L43.2260742,67.3295898 C42.6892877,67.3295898 42.3531094,67.2867029 42.2175293,67.2009277 C42.0819492,67.1151526 42.0141602,66.9588227 42.0141602,66.7319336 C42.0141602,66.5327138 42.0708816,66.3833013 42.1843262,66.2836914 C42.2977707,66.1840815 42.4624013,66.1342773 42.6782227,66.1342773 L45.4174805,66.1342773 C45.5668953,66.1342773 45.6831051,66.1647132 45.7661133,66.2255859 C45.8491215,66.2864586 45.890625,66.3694656 45.890625,66.4746094 L45.890625,75.8295898 L48.4970703,75.8295898 C48.7073578,75.8295898 48.8609207,75.8752437 48.9577637,75.9665527 C49.0546066,76.0578618 49.1030273,76.203124 49.1030273,76.4023438 C49.1030273,76.6292329 49.0559901,76.7855627 48.9619141,76.8713379 C48.8678381,76.9571131 48.6907565,77 48.4306641,77 L42.3046875,77 C42.0888661,77 41.9242356,76.9501958 41.810791,76.8505859 C41.6973464,76.7509761 41.640625,76.6015635 41.640625,76.4023438 C41.640625,76.2086579 41.6987299,76.0647791 41.8149414,75.9707031 C41.9311529,75.8766271 42.1054676,75.8295898 42.3378906,75.8295898 L44.637207,75.8295898 L44.637207,67.3295898 Z M54.6313477,66.9394531 C54.6313477,66.3417939 54.6853022,65.9654956 54.7932129,65.8105469 C54.9011236,65.6555982 55.1321597,65.578125 55.4863281,65.578125 C55.8294288,65.578125 56.0563146,65.6431471 56.1669922,65.7731934 C56.2776698,65.9032396 56.3330078,66.2117489 56.3330078,66.6987305 C56.3330078,67.1746443 56.2818202,67.4693191 56.1794434,67.5827637 C56.0770665,67.6962082 55.8460304,67.7529297 55.4863281,67.7529297 C55.1321597,67.7529297 54.9011236,67.7003586 54.7932129,67.5952148 C54.6853022,67.4900711 54.6313477,67.271486 54.6313477,66.9394531 Z M56.1669922,75.8295898 L58.831543,75.8295898 C59.0473644,75.8295898 59.2064611,75.8752437 59.3088379,75.9665527 C59.4112147,76.0578618 59.4624023,76.203124 59.4624023,76.4023438 C59.4624023,76.6292329 59.4139816,76.7855627 59.3171387,76.8713379 C59.2202957,76.9571131 59.0418307,77 58.7817383,77 L52.340332,77 C52.1189768,77 51.9529628,76.9501958 51.8422852,76.8505859 C51.7316075,76.7509761 51.6762695,76.6015635 51.6762695,76.4023438 C51.6762695,76.2086579 51.7343744,76.0647791 51.8505859,75.9707031 C51.9667975,75.8766271 52.1411121,75.8295898 52.3735352,75.8295898 L54.9052734,75.8295898 L54.9052734,70.5087891 L53.2866211,70.5087891 C53.0597319,70.5087891 52.8868007,70.4576014 52.7678223,70.3552246 C52.6488438,70.2528478 52.5893555,70.1048187 52.5893555,69.9111328 C52.5893555,69.7174469 52.6446935,69.5721847 52.7553711,69.4753418 C52.8660487,69.3784989 53.0320627,69.3300781 53.253418,69.3300781 L55.6855469,69.3300781 C55.8349617,69.3300781 55.9525549,69.360514 56.0383301,69.4213867 C56.1241052,69.4822594 56.1669922,69.5652664 56.1669922,69.6704102 L56.1669922,75.8295898 Z M62.7910156,73.5302734 C62.8352867,74.3271524 63.1050594,74.9427875 63.6003418,75.3771973 C64.0956242,75.811607 64.7721311,76.0288086 65.6298828,76.0288086 C66.277347,76.0288086 66.9829063,75.8558774 67.746582,75.5100098 C68.5102577,75.1641422 68.9723299,74.9912109 69.1328125,74.9912109 C69.298829,74.9912109 69.4371739,75.043782 69.5478516,75.1489258 C69.6585292,75.2540695 69.7138672,75.3841138 69.7138672,75.5390625 C69.7138672,75.6995451 69.6557623,75.8461907 69.5395508,75.9790039 C69.4233393,76.1118171 69.237957,76.2418613 68.9833984,76.3691406 C68.4300103,76.6403008 67.8586455,76.8478183 67.2692871,76.9916992 C66.6799287,77.1355801 66.0947295,77.2075195 65.5136719,77.2075195 C64.2519468,77.2075195 63.2420285,76.8436723 62.4838867,76.1159668 C61.7257449,75.3882613 61.3466797,74.4239969 61.3466797,73.2231445 C61.3466797,72.0001566 61.7478801,71.0096067 62.550293,70.2514648 C63.3527058,69.493323 64.3985938,69.1142578 65.6879883,69.1142578 C66.8556373,69.1142578 67.8240521,69.4684209 68.5932617,70.1767578 C69.3624713,70.8850947 69.7470703,71.7428335 69.7470703,72.75 C69.7470703,73.0598974 69.6820482,73.2674148 69.552002,73.3725586 C69.4219557,73.4777023 69.0691761,73.5302734 68.4936523,73.5302734 L62.7910156,73.5302734 Z M62.8325195,72.4428711 L68.2363281,72.4428711 C68.1533199,71.7843392 67.8780134,71.2544779 67.4104004,70.8532715 C66.9427874,70.4520651 66.3686557,70.2514648 65.6879883,70.2514648 C64.951982,70.2514648 64.3321965,70.4451478 63.8286133,70.8325195 C63.32503,71.2198913 62.9930021,71.7566697 62.8325195,72.4428711 Z M72.7104492,75.8295898 L72.7104492,70.5087891 L72.5527344,70.5087891 C72.1764304,70.5087891 71.9177253,70.4645187 71.7766113,70.3759766 C71.6354973,70.2874345 71.5649414,70.1324881 71.5649414,69.9111328 C71.5649414,69.7063792 71.6230463,69.5583501 71.7392578,69.467041 C71.8554693,69.375732 72.0436185,69.3300781 72.3037109,69.3300781 L73.4907227,69.3300781 C73.6401375,69.3300781 73.7563472,69.360514 73.8393555,69.4213867 C73.9223637,69.4822594 73.9638672,69.5652664 73.9638672,69.6704102 L73.9638672,70.2348633 C74.3678406,69.8585593 74.7676575,69.5804859 75.1633301,69.4006348 C75.5590026,69.2207836 75.9698872,69.1308594 76.3959961,69.1308594 C77.2316123,69.1308594 77.8887509,69.3909479 78.3674316,69.9111328 C78.8461124,70.4313177 79.0854492,71.1507116 79.0854492,72.0693359 L79.0854492,75.8295898 L79.4755859,75.8295898 C79.75228,75.8295898 79.9514968,75.8752437 80.0732422,75.9665527 C80.1949876,76.0578618 80.2558594,76.203124 80.2558594,76.4023438 C80.2558594,76.6181651 80.1908372,76.7717281 80.060791,76.8630371 C79.9307448,76.9543462 79.6997087,77 79.3676758,77 L77.5332031,77 C77.1790347,77 76.9521489,76.9584965 76.8525391,76.8754883 C76.7529292,76.7924801 76.703125,76.6347668 76.703125,76.4023438 C76.703125,76.1865224 76.7612299,76.0371098 76.8774414,75.9541016 C76.9936529,75.8710933 77.212238,75.8295898 77.5332031,75.8295898 L77.8237305,75.8295898 L77.8237305,72.3764648 C77.8237305,71.7290007 77.6770848,71.2351091 77.3837891,70.8947754 C77.0904933,70.5544417 76.6643908,70.3842773 76.1054688,70.3842773 C75.5410128,70.3842773 75.0429709,70.5751934 74.6113281,70.9570312 C74.1796853,71.3388691 73.9638672,71.8120089 73.9638672,72.3764648 L73.9638672,75.8295898 L74.2543945,75.8295898 C74.5864274,75.8295898 74.8105463,75.8710933 74.9267578,75.9541016 C75.0429693,76.0371098 75.1010742,76.1865224 75.1010742,76.4023438 C75.1010742,76.6347668 75.05127,76.7924801 74.9516602,76.8754883 C74.8520503,76.9584965 74.6085631,77 74.2211914,77 L72.262207,77 C72.0353179,77 71.8651536,76.9515793 71.751709,76.8547363 C71.6382644,76.7578934 71.581543,76.6070974 71.581543,76.4023438 C71.581543,76.1809885 71.6465651,76.0301925 71.7766113,75.9499512 C71.9066576,75.8697099 72.1598288,75.8295898 72.5361328,75.8295898 L72.7104492,75.8295898 Z M88.2661133,69.7949219 C88.5372735,69.7949219 88.7351068,69.8419592 88.8596191,69.9360352 C88.9841315,70.0301111 89.0463867,70.1795237 89.0463867,70.3842773 C89.0463867,70.5779632 88.9882818,70.7232254 88.8720703,70.8200684 C88.7558588,70.9169113 88.5815441,70.965332 88.3491211,70.965332 L84.9873047,70.965332 L84.9873047,73.737793 C84.9873047,74.6453496 85.1048979,75.2429999 85.3400879,75.5307617 C85.5752779,75.8185236 85.9778617,75.9624023 86.5478516,75.9624023 C87.0514348,75.9624023 87.6546189,75.8157567 88.3574219,75.5224609 C89.0602249,75.2291652 89.4946281,75.0825195 89.6606445,75.0825195 C89.8155932,75.0825195 89.9470209,75.1378575 90.0549316,75.2485352 C90.1628423,75.3592128 90.2167969,75.4947909 90.2167969,75.6552734 C90.2167969,75.8378915 90.1490078,75.9969883 90.0134277,76.1325684 C89.8778476,76.2681485 89.6468115,76.3995762 89.3203125,76.5268555 C88.7779921,76.7426769 88.2896343,76.9003901 87.8552246,77 C87.4208149,77.0996099 87.0126972,77.1494141 86.6308594,77.1494141 C85.9833952,77.1494141 85.4396995,77.0456553 84.9997559,76.8381348 C84.5598123,76.6306142 84.2319347,76.3221049 84.0161133,75.9125977 C83.9054356,75.7189118 83.826579,75.4892591 83.779541,75.2236328 C83.732503,74.9580065 83.7089844,74.5485054 83.7089844,73.9951172 L83.7089844,70.965332 L82.2978516,70.965332 C82.0654285,70.965332 81.8966477,70.9196782 81.7915039,70.8283691 C81.6863602,70.7370601 81.6337891,70.589031 81.6337891,70.3842773 C81.6337891,70.1573882 81.7057284,70.0024418 81.8496094,69.9194336 C81.9934903,69.8364254 82.3006161,69.7949219 82.7709961,69.7949219 L83.7089844,69.7949219 L83.7089844,67.6533203 C83.7089844,67.4153634 83.760172,67.2396653 83.8625488,67.1262207 C83.9649256,67.0127761 84.1240224,66.9560547 84.3398438,66.9560547 C84.5833346,66.9560547 84.7521154,67.0252272 84.8461914,67.1635742 C84.9402674,67.3019213 84.9873047,67.6173478 84.9873047,68.1098633 L84.9873047,69.7949219 L88.2661133,69.7949219 Z" id="Client" fill="#FFFFFF"></path>
            <path d="M19.519,38.458 C17.633,38.458 16.161,39.056 15.149,40.252 C14.137,41.356 13.677,42.92 13.677,44.852 L13.677,54.19 C13.677,55.57 13.355,56.582 12.803,57.226 C12.159,57.962 10.963,58.33 9.307,58.422 L9.307,61.458 C10.963,61.504 12.159,61.918 12.803,62.654 C13.355,63.298 13.677,64.31 13.677,65.69 L13.677,75.074 C13.677,77.006 14.137,78.524 15.149,79.628 C16.161,80.824 17.633,81.422 19.519,81.422 L22.693,81.422 L22.693,78.524 L20.117,78.524 C18.093,78.524 17.081,77.374 17.081,75.166 L17.081,65.552 C17.081,62.838 15.793,60.952 13.309,59.94 C15.793,58.974 17.081,57.088 17.081,54.328 L17.081,44.76 C17.081,42.46 18.093,41.356 20.117,41.356 L22.693,41.356 L22.693,38.458 L19.519,38.458 Z" id="{" fill-opacity="0.64" fill="#FFFFFF"></path>
            <path d="M97.307,38.458 L97.307,41.356 L99.883,41.356 C101.907,41.356 102.919,42.46 102.919,44.76 L102.919,54.328 C102.919,57.088 104.161,58.974 106.691,59.94 C104.161,60.952 102.919,62.838 102.919,65.552 L102.919,75.166 C102.919,77.374 101.907,78.524 99.883,78.524 L97.307,78.524 L97.307,81.422 L100.481,81.422 C102.321,81.422 103.793,80.824 104.851,79.628 C105.817,78.524 106.323,77.006 106.323,75.074 L106.323,65.69 C106.323,64.31 106.599,63.298 107.197,62.654 C107.841,61.918 108.991,61.504 110.693,61.458 L110.693,58.422 C108.991,58.33 107.841,57.962 107.197,57.272 C106.599,56.582 106.323,55.57 106.323,54.19 L106.323,44.852 C106.323,42.92 105.817,41.356 104.851,40.252 C103.793,39.056 102.321,38.458 100.481,38.458 L97.307,38.458 Z" id="}" fill-opacity="0.64" fill="#FFFFFF"></path>
        </g>
    </g>
</svg>