<?xml version="1.0" encoding="iso-8859-1"?>
<!-- Generator: Adobe Illustrator 18.1.1, SVG Export Plug-In . SVG Version: 6.00 Build 0)  -->
<svg version="1.1" id="Capa_1" xmlns="http://www.w3.org/2000/svg" xmlns:xlink="http://www.w3.org/1999/xlink" x="0px" y="0px"
	 viewBox="0 0 14.4 14.4" style="enable-background:new 0 0 14.4 14.4;" xml:space="preserve">
<g>
	<g>
		<path style="fill:#030104;" d="M12.252,0H2.147C1.934,0,1.76,0.173,1.76,0.387v13.626c0,0.214,0.173,0.387,0.387,0.387h7.538
			c0.109,0,0.215-0.047,0.287-0.129l2.568-2.877c0.063-0.07,0.099-0.162,0.099-0.257V0.388C12.639,0.174,12.466,0,12.252,0z
			 M11.42,10.064l-2.305-0.002c-0.114,0-0.223,0.045-0.304,0.126c-0.081,0.08-0.126,0.189-0.125,0.304l0.008,2.885H2.921V0.97h8.499
			V10.064z"/>
		<rect x="4.327" y="2.596" style="fill:#030104;" width="5.656" height="1.289"/>
		<rect x="4.298" y="5.748" style="fill:#030104;" width="5.656" height="1.289"/>
	</g>
</g>
<g>
</g>
<g>
</g>
<g>
</g>
<g>
</g>
<g>
</g>
<g>
</g>
<g>
</g>
<g>
</g>
<g>
</g>
<g>
</g>
<g>
</g>
<g>
</g>
<g>
</g>
<g>
</g>
<g>
</g>
</svg>
