<svg width="256" height="256" xmlns="http://www.w3.org/2000/svg" xml:space="preserve" version="1.1">

 <g>
  <title>Layer 1</title>
  <g stroke="null" id="_x32_">
   <path stroke="null" id="svg_1" fill="#BDBDBD" d="m144.10296,160.6429l0,35.56568c5.79875,2.96381 12.62839,5.15445 20.48892,6.70078s16.23651,2.19064 24.99906,2.19064c8.50484,0 16.62309,-0.77317 24.35476,-2.44836s14.43245,-4.38128 20.2312,-8.11825c5.79875,-3.73697 10.30889,-8.6337 13.78814,-14.69017c3.35039,-6.05647 5.02558,-13.53042 5.02558,-22.42184c0,-6.44306 -0.90203,-12.11295 -2.83495,-17.00967s-4.76786,-9.14914 -8.37597,-13.01498c-3.60811,-3.73697 -7.98939,-7.21622 -13.01498,-10.18003c-5.02558,-2.96381 -10.82434,-5.79875 -17.13853,-8.50484c-4.639,-1.93292 -8.89142,-3.73697 -12.62839,-5.66989c-3.73697,-1.80406 -6.82964,-3.60811 -9.40686,-5.54103s-4.639,-3.86583 -6.05647,-6.05647s-2.06178,-4.51014 -2.06178,-7.21622c0,-2.44836 0.64431,-4.639 1.93292,-6.57192s3.09267,-3.60811 5.28331,-5.02558c2.3195,-1.41747 5.15445,-2.44836 8.50484,-3.22153s7.08736,-1.15975 11.08206,-1.15975c2.96381,0 6.05647,0.25772 9.40686,0.64431s6.57192,1.15975 9.92231,2.06178c3.35039,0.90203 6.57192,2.06178 9.79345,3.47925c3.09267,1.41747 6.05647,3.09267 8.76256,4.89672l0,-33.24618c-5.41217,-2.06178 -11.33978,-3.60811 -17.78284,-4.639s-13.78814,-1.54633 -22.03526,-1.54633c-8.50484,0 -16.49423,0.90203 -24.09704,2.70608s-14.17473,4.639 -19.97348,8.50484s-10.30889,8.76256 -13.65928,14.69017s-5.02558,13.14384 -5.02558,21.39095c0,10.56661 3.09267,19.5869 9.14914,27.1897c6.18534,7.47395 15.46334,13.78814 27.83401,19.07145c4.89672,2.06178 9.40686,3.9947 13.65928,5.92761s7.86053,3.86583 10.9532,6.05647s5.54103,4.38128 7.34509,6.82964s2.70608,5.28331 2.70608,8.37597c0,2.3195 -0.51544,4.38128 -1.67519,6.44306c-1.15975,1.93292 -2.83495,3.60811 -5.02558,5.15445s-5.02558,2.57722 -8.50484,3.35039s-7.34509,1.15975 -11.85523,1.15975c-7.73167,0 -15.33448,-1.41747 -22.93729,-4.12356c-7.60281,-2.57722 -14.69017,-6.57192 -21.13323,-11.98409l0,0z" class="st1"/>
   <polygon stroke="null" id="svg_2" fill="#BDBDBD" points="84.82683563232422,71.98643112182617 130.57254028320312,71.98643112182617 130.57254028320312,42.73494338989258 3,42.73494338989258 3,71.98643112182617 48.48799133300781,71.98643112182617 48.48799133300781,202.5227813720703 84.6979751586914,202.5227813720703 84.6979751586914,71.98643112182617 " class="st1"/>
  </g>
 </g>
</svg>