<svg width="256" height="256" xmlns="http://www.w3.org/2000/svg" xml:space="preserve" version="1.1">

 <g>
  <title>Layer 1</title>
  <!-- <rect x="0" y="0" id="svg_1" fill="#3178C6" height="256" width="256" class="st0"/> -->
  <path stroke="null" id="svg_2" fill="#424242" clip-rule="evenodd" fill-rule="evenodd" d="m143.71271,165.91711l0,32.76692c5.34243,2.73058 11.63463,4.74883 18.8766,6.17348s14.95881,2.01825 23.03182,2.01825c7.83557,0 15.31498,-0.71232 22.43822,-2.25569s13.29672,-4.03651 18.63916,-7.47941c5.34243,-3.4429 9.49766,-7.95429 12.70312,-13.53416c3.08674,-5.57987 4.63011,-12.46568 4.63011,-20.65741c0,-5.93604 -0.83105,-11.15975 -2.61186,-15.67114s-4.39267,-8.42917 -7.71685,-11.99079c-3.32418,-3.4429 -7.36069,-6.64836 -11.99079,-9.37894c-4.63011,-2.73058 -9.97254,-5.34243 -15.78986,-7.83557c-4.27395,-1.78081 -8.19173,-3.4429 -11.63463,-5.22371c-3.4429,-1.66209 -6.2922,-3.32418 -8.66661,-5.10499c-2.37441,-1.78081 -4.27395,-3.56162 -5.57987,-5.57987s-1.89953,-4.15523 -1.89953,-6.64836c0,-2.25569 0.5936,-4.27395 1.78081,-6.05476s2.8493,-3.32418 4.86755,-4.63011c2.13697,-1.30593 4.74883,-2.25569 7.83557,-2.96802c3.08674,-0.71232 6.52964,-1.06849 10.20998,-1.06849c2.73058,0 5.57987,0.23744 8.66661,0.5936c3.08674,0.35616 6.05476,1.06849 9.1415,1.89953c3.08674,0.83105 6.05476,1.89953 9.02278,3.20546c2.8493,1.30593 5.57987,2.8493 8.07301,4.51139l0,-30.62995c-4.98627,-1.89953 -10.44743,-3.32418 -16.38346,-4.27395s-12.70312,-1.42465 -20.30125,-1.42465c-7.83557,0 -15.19625,0.83105 -22.20078,2.49314c-7.00452,1.66209 -13.05928,4.27395 -18.40171,7.83557c-5.34243,3.56162 -9.49766,8.07301 -12.5844,13.53416c-3.08674,5.46115 -4.63011,12.10952 -4.63011,19.70764c0,9.7351 2.8493,18.04555 8.42917,25.05008c5.6986,6.8858 14.24649,12.70312 25.64368,17.57067c4.51139,1.89953 8.66661,3.68034 12.5844,5.46115c3.91778,1.78081 7.24197,3.56162 10.09126,5.57987s5.10499,4.03651 6.76708,6.2922s2.49314,4.86755 2.49314,7.71685c0,2.13697 -0.47488,4.03651 -1.54337,5.93604c-1.06849,1.78081 -2.61186,3.32418 -4.63011,4.74883s-4.63011,2.37441 -7.83557,3.08674s-6.76708,1.06849 -10.92231,1.06849c-7.12324,0 -14.12777,-1.30593 -21.13229,-3.79906c-7.00452,-2.37441 -13.53416,-6.05476 -19.4702,-11.04103l0,0zm-54.61154,-81.67987l42.14586,0l0,-26.94961l-117.53353,0l0,26.94961l41.90842,0l0,120.26411l33.36053,0l0,-120.26411l0.11872,0z" class="st1"/>
 </g>
</svg>