<?xml version="1.0" encoding="utf-8"?>
<!-- Generator: Adobe Illustrator 23.1.1, SVG Export Plug-In . SVG Version: 6.00 Build 0)  -->
<svg version="1.1" id="Layer_1" xmlns="http://www.w3.org/2000/svg" xmlns:xlink="http://www.w3.org/1999/xlink" x="0px" y="0px"
	 viewBox="0 0 256 256" style="enable-background:new 0 0 256 256;" xml:space="preserve">
<style type="text/css">
	.st0{fill:#3178C6;}
	.st1{fill-rule:evenodd;clip-rule:evenodd;fill:#FFFFFF;}
</style>
<rect class="st0" width="256" height="256"/>
<path class="st1" d="M150.5,200.5v27.6c4.5,2.3,9.8,4,15.9,5.2s12.6,1.7,19.4,1.7c6.6,0,12.9-0.6,18.9-1.9s11.2-3.4,15.7-6.3
	c4.5-2.9,8-6.7,10.7-11.4c2.6-4.7,3.9-10.5,3.9-17.4c0-5-0.7-9.4-2.2-13.2s-3.7-7.1-6.5-10.1c-2.8-2.9-6.2-5.6-10.1-7.9
	c-3.9-2.3-8.4-4.5-13.3-6.6c-3.6-1.5-6.9-2.9-9.8-4.4c-2.9-1.4-5.3-2.8-7.3-4.3c-2-1.5-3.6-3-4.7-4.7s-1.6-3.5-1.6-5.6
	c0-1.9,0.5-3.6,1.5-5.1s2.4-2.8,4.1-3.9c1.8-1.1,4-1.9,6.6-2.5c2.6-0.6,5.5-0.9,8.6-0.9c2.3,0,4.7,0.2,7.3,0.5
	c2.6,0.3,5.1,0.9,7.7,1.6c2.6,0.7,5.1,1.6,7.6,2.7c2.4,1.1,4.7,2.4,6.8,3.8v-25.8c-4.2-1.6-8.8-2.8-13.8-3.6s-10.7-1.2-17.1-1.2
	c-6.6,0-12.8,0.7-18.7,2.1c-5.9,1.4-11,3.6-15.5,6.6c-4.5,3-8,6.8-10.6,11.4c-2.6,4.6-3.9,10.2-3.9,16.6c0,8.2,2.4,15.2,7.1,21.1
	c4.8,5.8,12,10.7,21.6,14.8c3.8,1.6,7.3,3.1,10.6,4.6c3.3,1.5,6.1,3,8.5,4.7s4.3,3.4,5.7,5.3s2.1,4.1,2.1,6.5c0,1.8-0.4,3.4-1.3,5
	c-0.9,1.5-2.2,2.8-3.9,4s-3.9,2-6.6,2.6s-5.7,0.9-9.2,0.9c-6,0-11.9-1.1-17.8-3.2C161,207.8,155.5,204.7,150.5,200.5L150.5,200.5z
	 M104.5,131.7H140V109H41v22.7h35.3V233h28.1V131.7z"/>
</svg>
